<?xml version="1.0" standalone="no"?>
<!DOCTYPE svg PUBLIC "-//W3C//DTD SVG 20010904//EN"
 "http://www.w3.org/TR/2001/REC-SVG-20010904/DTD/svg10.dtd">
<svg version="1.0" xmlns="http://www.w3.org/2000/svg"
 width="300.000000pt" height="300.000000pt" viewBox="0 0 300.000000 300.000000"
 preserveAspectRatio="xMidYMid meet">
<metadata>
Created by potrace 1.10, written by Peter Selinger 2001-2011
</metadata>
<g transform="translate(0.000000,300.000000) scale(0.100000,-0.100000)"
fill="#000000" stroke="none">
<path d="M1262 2669 c-129 -21 -246 -118 -296 -245 -52 -130 -88 -164 -208
-198 -70 -20 -115 -57 -140 -114 -17 -38 -19 -57 -13 -150 8 -125 4 -135 -94
-201 -105 -72 -154 -161 -155 -281 -1 -146 75 -252 236 -329 97 -46 154 -98
169 -156 7 -23 9 -73 6 -116 -4 -42 -2 -92 4 -112 20 -73 101 -136 176 -137
18 0 68 12 110 27 97 32 191 36 243 9 19 -10 73 -57 120 -105 94 -96 147 -127
246 -144 81 -14 173 8 251 59 93 63 144 148 164 275 13 90 39 153 70 169 15 9
51 10 119 5 111 -7 147 2 195 54 72 75 71 178 0 263 -41 48 -83 140 -91 195
-8 64 15 118 81 193 89 100 129 233 106 351 -33 166 -152 296 -310 339 -24 6
-103 11 -176 11 -142 -1 -217 10 -279 41 -21 11 -82 65 -135 120 -106 110
-145 139 -217 162 -68 20 -120 25 -182 15z m178 -31 c54 -20 112 -57 105 -68
-3 -5 0 -7 7 -5 8 3 25 -6 38 -20 21 -23 22 -25 5 -19 -11 4 -17 4 -13 0 3 -4
12 -8 20 -9 7 -2 49 -39 93 -84 105 -106 137 -116 355 -118 85 -1 171 -5 190
-10 57 -12 172 -76 166 -92 -3 -8 -1 -11 4 -8 14 9 65 -52 96 -114 50 -103 50
-259 1 -358 -26 -50 -106 -152 -108 -136 0 4 -9 -12 -19 -37 -23 -55 -25 -141
-5 -201 9 -24 35 -71 60 -104 25 -33 50 -75 56 -93 17 -50 6 -116 -25 -157
-44 -57 -70 -66 -200 -63 -108 3 -115 2 -140 -21 -28 -26 -66 -128 -66 -178 0
-41 -33 -129 -64 -171 -60 -82 -182 -142 -287 -142 -33 0 -58 4 -55 9 3 5 -12
11 -33 14 -21 2 -55 13 -76 23 -47 22 -108 81 -99 96 4 6 3 8 -3 5 -6 -4 -16
0 -23 8 -7 8 -9 15 -4 15 5 0 -3 8 -17 18 -15 9 -44 29 -65 44 -75 52 -178 53
-307 3 -82 -33 -172 -8 -215 59 -25 38 -26 48 -24 139 3 118 -10 169 -58 216
-49 50 -67 62 -130 91 -84 38 -104 51 -88 62 10 7 8 8 -4 4 -26 -8 -70 39
-104 109 -41 85 -41 185 -1 267 15 31 41 68 57 81 16 14 27 27 25 29 -2 2 20
19 50 36 30 18 55 38 55 44 0 5 6 8 13 5 16 -6 19 13 21 153 2 142 4 162 14
156 4 -2 13 8 20 23 12 27 80 71 110 71 30 0 116 46 143 76 14 16 35 49 46 74
11 25 30 66 41 91 30 69 79 121 106 114 15 -5 17 -4 8 3 -24 17 51 58 153 86
30 8 135 -2 175 -16z"/>
<path d="M1318 2623 c7 -3 16 -2 19 1 4 3 -2 6 -13 5 -11 0 -14 -3 -6 -6z"/>
<path d="M1368 2623 c7 -3 16 -2 19 1 4 3 -2 6 -13 5 -11 0 -14 -3 -6 -6z"/>
<path d="M1255 2591 c-87 -21 -158 -90 -159 -155 -1 -58 26 -60 97 -7 29 22
69 47 88 55 44 18 165 24 181 8 31 -31 78 1 58 38 -9 16 -18 21 -36 17 -17 -3
-24 -1 -20 8 11 29 -133 54 -209 36z m162 -26 c52 -22 29 -45 -46 -45 -66 0
-117 -22 -196 -81 -60 -45 -82 -44 -69 6 10 40 74 100 125 118 57 20 140 21
186 2z m93 -50 c0 -19 -20 -29 -32 -17 -15 15 -2 43 17 36 8 -3 15 -12 15 -19z"/>
<path d="M1070 2539 c0 -5 5 -7 10 -4 6 3 10 8 10 11 0 2 -4 4 -10 4 -5 0 -10
-5 -10 -11z"/>
<path d="M1026 2475 c-9 -26 -7 -32 5 -12 6 10 9 21 6 23 -2 3 -7 -2 -11 -11z"/>
<path d="M1495 2152 c-66 -5 -183 -43 -292 -94 -47 -23 -44 1 4 25 49 25 75
47 55 47 -20 0 -136 -79 -183 -124 -109 -105 -160 -220 -160 -358 -1 -259 185
-455 507 -535 144 -36 431 -18 528 32 16 9 31 13 34 11 2 -3 -31 -41 -75 -84
-63 -63 -98 -88 -165 -121 -432 -209 -902 67 -925 544 -13 275 117 494 365
613 39 19 72 36 72 39 0 14 -151 -55 -205 -95 -102 -74 -173 -174 -222 -316
-21 -60 -25 -90 -25 -196 -1 -128 7 -173 44 -270 24 -62 92 -177 117 -200 9
-8 37 -33 61 -55 25 -22 44 -43 42 -48 -1 -5 2 -6 8 -2 5 3 23 -3 39 -14 16
-12 34 -21 40 -21 6 0 11 -5 11 -11 0 -5 4 -8 9 -4 5 3 15 0 23 -7 7 -7 22
-15 33 -17 11 -2 52 -9 90 -16 39 -7 108 -11 155 -9 88 4 231 34 255 54 8 7
20 8 27 4 7 -4 10 -4 6 0 -4 5 16 23 44 42 56 38 67 42 47 17 -9 -11 -2 -9 19
6 18 13 36 21 39 18 6 -7 -75 -67 -91 -67 -14 -1 -75 -50 -62 -50 27 0 150 87
204 145 98 104 142 208 142 335 0 135 -47 247 -145 345 -114 113 -275 183
-478 206 -130 15 -265 3 -375 -35 l-72 -24 20 28 c41 57 147 142 225 181 104
51 212 73 325 65 177 -12 288 -61 405 -180 131 -132 188 -273 189 -466 1 -188
-51 -316 -179 -446 -66 -67 -96 -89 -175 -128 -52 -25 -90 -46 -83 -46 18 0
127 43 134 53 4 5 13 6 20 2 8 -5 11 -5 7 0 -5 5 13 23 40 40 169 114 272 350
251 574 -17 179 -73 311 -178 420 -35 36 -64 69 -63 73 1 4 -6 4 -15 1 -9 -4
-14 -2 -10 3 6 11 -96 62 -177 89 -69 22 -190 34 -281 27z m-314 -112 c5 0
-10 -17 -33 -37 -23 -21 -55 -53 -71 -70 -16 -18 -33 -31 -37 -28 -5 3 -12 0
-16 -6 -4 -8 -3 -9 4 -5 8 5 11 -1 9 -16 -2 -19 3 -23 28 -23 17 0 37 3 45 6
49 21 67 28 88 32 12 3 20 2 18 -2 -3 -4 5 -8 17 -8 15 -2 18 0 9 6 -21 13 37
21 143 21 89 0 189 -13 230 -30 33 -13 58 -21 84 -26 42 -8 150 -62 176 -88
14 -14 29 -26 33 -27 4 0 6 -5 5 -10 -2 -4 3 -6 10 -4 19 6 103 -101 127 -163
12 -31 26 -65 31 -74 12 -23 12 -213 0 -236 -5 -9 -23 -46 -39 -82 -29 -66
-76 -127 -94 -122 -5 1 -7 -2 -4 -7 3 -5 -1 -14 -9 -21 -12 -10 -15 -10 -15 0
0 9 -7 7 -20 -5 -11 -10 -22 -16 -25 -13 -5 5 96 103 107 103 3 0 10 4 15 9 5
5 3 6 -4 2 -16 -9 -16 -1 -3 24 16 30 -5 33 -63 12 -77 -29 -145 -37 -307 -36
-113 1 -162 6 -220 22 -98 26 -213 80 -204 94 4 7 3 8 -4 4 -7 -4 -22 2 -34
13 -12 12 -27 21 -33 21 -18 0 -98 87 -90 99 3 6 1 10 -5 9 -19 -4 -69 96 -88
177 -11 43 -9 150 3 200 12 50 49 116 63 110 6 -2 12 3 12 11 0 9 -5 12 -12 8
-16 -10 -3 12 39 64 20 25 39 39 46 36 7 -4 8 -3 4 1 -10 12 44 65 61 59 8 -2
18 -4 23 -4z"/>
<path d="M1065 1960 c-3 -5 -1 -10 4 -10 6 0 11 5 11 10 0 6 -2 10 -4 10 -3 0
-8 -4 -11 -10z"/>
<path d="M1045 1930 c-3 -5 -1 -10 4 -10 6 0 11 5 11 10 0 6 -2 10 -4 10 -3 0
-8 -4 -11 -10z"/>
<path d="M1468 1799 c-47 -7 -168 -66 -168 -82 0 -4 -4 -5 -10 -2 -6 4 -7 -1
-3 -12 3 -10 3 -15 -2 -11 -16 15 -57 -96 -62 -168 -5 -63 -2 -78 26 -140 16
-38 31 -66 31 -63 0 4 17 -9 37 -30 21 -20 36 -39 35 -42 -1 -4 8 -5 18 -2 11
3 20 1 20 -4 0 -15 108 -35 162 -30 26 2 59 12 73 21 14 9 31 14 38 10 7 -4 9
-4 5 1 -4 4 11 21 32 36 22 16 40 34 40 40 0 5 5 7 10 4 6 -4 10 -3 9 2 -1 4
8 29 20 56 40 87 38 184 -8 272 -8 17 -14 34 -13 38 1 5 -2 6 -7 2 -6 -3 -16
4 -23 15 -19 31 -106 77 -163 87 -27 5 -71 6 -97 2z m155 -37 c132 -59 197
-206 152 -343 -26 -77 -103 -152 -180 -175 -132 -38 -273 23 -331 144 -26 54
-30 162 -9 219 57 149 223 219 368 155z"/>
<path d="M952 1725 c0 -16 2 -22 5 -12 2 9 2 23 0 30 -3 6 -5 -1 -5 -18z"/>
<path d="M632 2040 c0 -14 2 -19 5 -12 2 6 2 18 0 25 -3 6 -5 1 -5 -13z"/>
<path d="M815 1770 c-3 -5 -1 -10 4 -10 6 0 11 5 11 10 0 6 -2 10 -4 10 -3 0
-8 -4 -11 -10z"/>
<path d="M2190 1229 c0 -5 5 -7 10 -4 6 3 10 8 10 11 0 2 -4 4 -10 4 -5 0 -10
-5 -10 -11z"/>
<path d="M791 1014 c0 -11 3 -14 6 -6 3 7 2 16 -1 19 -3 4 -6 -2 -5 -13z"/>
<path d="M873 724 c-9 -24 30 -57 67 -56 39 1 44 5 36 30 -4 11 -22 24 -45 30
-49 15 -50 15 -58 -4z m91 -35 c-8 -14 -37 -11 -62 7 -34 24 -17 34 28 17 22
-9 37 -20 34 -24z"/>
<path d="M840 705 c7 -9 15 -13 17 -11 7 7 -7 26 -19 26 -6 0 -6 -6 2 -15z"/>
<path d="M314 2007 c-35 -31 -36 -73 0 -103 32 -28 63 -24 94 11 29 34 28 51
-7 86 -35 35 -52 36 -87 6z m46 -6 c0 -10 -24 -21 -43 -21 -7 0 -3 7 7 15 22
17 36 19 36 6z m38 -13 c16 -16 15 -39 -2 -64 -18 -26 -71 -21 -87 8 -9 16 -5
20 23 31 18 6 36 10 40 9 4 -1 5 5 2 13 -7 18 7 20 24 3z"/>
<path d="M330 1940 c-8 -5 -12 -11 -9 -14 2 -3 11 -1 19 4 8 5 12 11 9 14 -2
3 -11 1 -19 -4z"/>
<path d="M471 1934 c0 -11 3 -14 6 -6 3 7 2 16 -1 19 -3 4 -6 -2 -5 -13z"/>
<path d="M2291 763 c-67 -33 -92 -123 -50 -177 82 -104 279 -60 279 63 0 102
-126 165 -229 114z m93 -12 c11 -12 14 -21 7 -26 -6 -3 -11 1 -11 9 0 8 -8 20
-17 25 -10 6 -13 11 -7 11 6 0 19 -9 28 -19z m96 -38 c47 -60 15 -139 -67
-163 -38 -12 -100 -3 -129 17 -21 16 -55 81 -44 88 5 3 10 -1 10 -9 0 -29 37
-18 50 15 14 32 63 61 87 52 12 -5 17 7 14 34 -3 20 56 -5 79 -34z m-120 27
c0 -6 -11 -15 -25 -20 -14 -5 -36 -27 -48 -47 -20 -35 -22 -36 -25 -15 -5 33
23 70 61 81 17 5 33 10 35 10 1 1 2 -4 2 -9z"/>
<path d="M2261 476 c-15 -18 -4 -46 18 -46 27 0 42 20 30 42 -12 21 -32 23
-48 4z m29 -16 c0 -5 -5 -10 -11 -10 -5 0 -7 5 -4 10 3 6 8 10 11 10 2 0 4 -4
4 -10z"/>
</g>
</svg>
